<?xml version="1.0" standalone="no"?>
<!DOCTYPE svg PUBLIC "-//W3C//DTD SVG 20010904//EN"
 "http://www.w3.org/TR/2001/REC-SVG-20010904/DTD/svg10.dtd">
<svg version="1.0" xmlns="http://www.w3.org/2000/svg"
 width="512.000000pt" height="512.000000pt" viewBox="0 0 512.000000 512.000000"
 preserveAspectRatio="xMidYMid meet">

<g transform="translate(0.000000,512.000000) scale(0.100000,-0.100000)"
fill="#000000" stroke="none">
<path d="M1195 5110 c-3 -5 -20 -10 -37 -10 -29 0 -126 -22 -173 -39 -73 -27
-209 -102 -276 -153 -170 -128 -323 -344 -394 -553 -52 -156 -66 -245 -66
-439 0 -178 3 -206 44 -351 10 -38 22 -86 26 -106 4 -19 15 -50 24 -69 9 -18
17 -37 17 -41 0 -15 75 -135 131 -209 74 -99 182 -200 285 -266 46 -30 88 -54
93 -54 6 0 25 -8 43 -19 33 -18 91 -39 178 -61 25 -7 51 -14 58 -16 7 -2 12
-21 12 -46 1 -48 14 -72 48 -82 l22 -7 0 -704 0 -704 -46 -52 c-25 -28 -50
-63 -56 -78 -10 -25 -12 -549 -2 -574 11 -30 325 -220 339 -205 7 8 8 755 1
778 -5 14 -17 32 -27 41 -11 9 -19 20 -19 24 0 5 -7 16 -15 25 -14 15 -15 105
-15 731 0 393 0 717 0 722 0 4 8 7 18 7 27 0 46 42 39 84 -5 33 -3 37 21 42
42 10 124 32 157 42 62 19 199 94 269 147 240 180 406 455 463 764 21 108 22
380 4 471 -13 65 -57 221 -71 250 -87 189 -173 323 -254 397 -78 71 -193 157
-265 198 -78 43 -226 94 -298 102 -29 3 -53 10 -53 14 0 13 -217 11 -225 -1z
m290 -164 c28 -9 61 -16 75 -16 14 0 36 -8 50 -17 13 -9 58 -34 100 -54 41
-20 84 -46 94 -58 11 -12 23 -21 29 -21 10 0 110 -102 166 -170 18 -23 47 -69
64 -103 17 -34 41 -76 54 -93 13 -17 23 -36 23 -43 0 -6 4 -19 10 -29 16 -28
41 -132 50 -205 5 -37 12 -78 16 -90 10 -32 7 -235 -5 -282 -6 -22 -11 -57
-11 -77 0 -48 -41 -184 -73 -243 -57 -104 -99 -175 -121 -201 -14 -18 -26 -35
-26 -39 0 -17 -208 -205 -228 -205 -5 0 -45 -20 -88 -43 -44 -24 -95 -47 -114
-50 -19 -4 -55 -12 -80 -19 -25 -6 -99 -11 -165 -11 -153 0 -261 24 -362 82
-40 22 -76 41 -80 41 -14 0 -105 73 -153 122 -64 65 -124 138 -142 173 -49 95
-72 135 -78 135 -4 0 -20 39 -35 88 -15 48 -32 97 -37 109 -6 11 -8 26 -4 31
3 6 -1 42 -9 82 -19 88 -19 275 -1 351 8 31 11 69 9 83 -3 14 -1 32 5 39 5 6
17 41 26 77 10 37 40 105 71 158 30 51 55 98 55 103 0 22 151 184 227 244 61
48 241 131 328 151 101 24 286 24 360 0z"/>
<path d="M3700 5111 c0 -4 -24 -11 -52 -14 -74 -8 -222 -59 -302 -104 -126
-72 -276 -193 -341 -276 -41 -53 -145 -225 -145 -240 0 -7 -4 -17 -9 -23 -17
-19 -66 -167 -93 -284 -17 -75 -17 -427 0 -500 40 -170 77 -269 146 -395 156
-280 453 -502 739 -550 36 -6 37 -7 37 -46 0 -32 6 -46 30 -68 l30 -27 -2
-705 -3 -706 -47 -52 c-35 -39 -48 -63 -53 -94 -3 -23 -6 -205 -8 -405 -2
-300 0 -362 12 -362 16 0 123 54 166 85 17 11 42 26 56 34 14 7 48 29 75 50
l49 37 0 269 c-1 294 -4 314 -57 371 l-29 31 1 725 c0 777 3 741 -50 751 -15
2 -5 5 22 6 51 1 74 22 57 52 -14 27 12 45 91 63 139 32 249 82 367 165 185
130 364 371 409 546 7 28 21 82 32 120 39 134 44 174 43 352 0 199 -9 259 -64
428 -68 209 -212 418 -381 551 -66 53 -213 136 -291 165 -37 14 -151 39 -178
39 -14 0 -29 5 -32 10 -8 12 -225 14 -225 1z m275 -165 c28 -9 63 -16 78 -16
26 0 65 -15 77 -29 8 -10 115 -61 127 -61 7 0 27 -12 45 -27 18 -16 42 -33 53
-39 11 -6 27 -24 35 -40 9 -16 29 -35 44 -42 14 -7 37 -30 50 -50 13 -20 33
-46 45 -56 11 -11 21 -29 21 -40 0 -12 9 -32 20 -46 11 -14 20 -30 20 -36 0
-6 10 -22 23 -35 25 -28 51 -84 68 -149 6 -25 14 -52 17 -60 3 -8 7 -46 8 -83
2 -38 8 -75 14 -82 7 -8 11 -31 10 -52 -3 -91 -2 -133 4 -158 5 -18 1 -36 -10
-52 -10 -16 -17 -51 -19 -97 -3 -82 -52 -243 -84 -275 -11 -11 -35 -50 -53
-88 -39 -82 -111 -179 -138 -188 -11 -4 -27 -19 -35 -35 -8 -15 -30 -37 -48
-49 -18 -11 -42 -29 -52 -41 -10 -11 -25 -20 -34 -20 -19 0 -79 -30 -132 -66
-19 -13 -46 -24 -60 -23 -34 0 -122 -19 -128 -30 -9 -12 -243 -7 -266 6 -12 7
-50 15 -85 19 -44 4 -72 13 -87 27 -13 11 -23 16 -23 11 0 -5 -4 -4 -8 2 -8
13 -86 54 -103 54 -36 0 -292 259 -294 298 -1 10 -46 96 -54 102 -16 12 -40
60 -60 120 -36 110 -39 123 -40 194 -1 45 -7 73 -16 83 -16 16 -20 49 -7 57 4
3 5 42 0 87 -6 65 -5 87 6 104 8 12 16 55 19 96 4 74 30 185 48 204 5 5 9 15
9 22 0 8 16 37 36 65 19 29 45 73 56 98 11 25 29 55 40 67 12 12 26 33 32 45
6 13 23 29 38 35 27 14 46 33 63 66 5 11 19 25 30 31 11 6 35 23 53 39 18 15
38 27 46 27 11 0 42 16 149 77 12 7 38 13 57 14 19 0 58 8 85 17 64 22 238 21
310 -2z m-117 -2264 c-49 -3 -58 -6 -58 -22 0 -10 6 -21 13 -23 7 -3 5 -6 -5
-6 -14 -1 -18 7 -18 32 l0 32 62 -5 63 -5 -57 -3z"/>
<path d="M2315 1082 c-32 -2 -64 -7 -70 -12 -11 -9 -12 -96 -2 -106 3 -3 145
-2 316 2 260 6 309 9 300 21 -7 7 -9 30 -6 53 l5 40 -228 0 c-126 0 -234 1
-242 3 -7 2 -40 1 -73 -1z m525 -57 l0 -35 -155 0 c-85 0 -158 -1 -162 -2 -5
-2 -9 14 -11 35 l-3 37 165 0 166 0 0 -35z"/>
</g>
</svg>
