<?xml version="1.0" standalone="no"?>
<!DOCTYPE svg PUBLIC "-//W3C//DTD SVG 20010904//EN"
 "http://www.w3.org/TR/2001/REC-SVG-20010904/DTD/svg10.dtd">
<svg version="1.0" xmlns="http://www.w3.org/2000/svg"
 width="225.000000pt" height="225.000000pt" viewBox="0 0 225.000000 225.000000"
 preserveAspectRatio="xMidYMid meet">

<g transform="translate(0.000000,225.000000) scale(0.100000,-0.100000)"
fill="#000000" stroke="none">
<path d="M493 2240 c-155 -33 -291 -156 -351 -319 -52 -140 -39 -341 31 -474
58 -110 181 -212 289 -237 41 -10 48 -16 48 -36 0 -14 7 -27 15 -30 13 -5 15
-50 15 -317 0 -308 0 -311 -22 -335 -21 -21 -23 -35 -26 -152 l-4 -128 34 -25
c31 -23 111 -67 123 -67 3 0 5 73 5 163 0 144 -2 166 -20 195 -19 31 -20 50
-20 343 0 263 2 313 15 325 8 9 15 24 15 34 0 13 10 21 33 25 97 21 220 113
283 212 99 153 113 372 36 547 -50 112 -156 214 -267 255 -64 24 -172 34 -232
21z m249 -99 c223 -124 303 -431 172 -664 -56 -101 -154 -180 -256 -205 -220
-55 -445 119 -480 372 -30 211 68 420 234 499 73 35 81 36 183 32 79 -3 97 -7
147 -34z"/>
<path d="M1590 2240 c-74 -16 -162 -66 -226 -127 -106 -104 -155 -232 -155
-399 1 -160 60 -296 174 -401 60 -55 137 -97 200 -108 30 -6 37 -12 37 -31 0
-12 5 -26 10 -29 6 -4 10 -120 10 -316 0 -298 -1 -311 -21 -338 -19 -26 -20
-41 -20 -201 1 -96 3 -175 4 -177 2 -1 35 17 73 40 l69 43 3 129 c2 117 1 132
-18 157 -19 26 -20 41 -20 348 0 207 4 320 10 320 6 0 10 11 10 23 0 20 7 25
53 36 155 34 298 186 341 362 20 80 21 226 2 296 -58 217 -223 364 -423 377
-38 3 -88 1 -113 -4z m249 -96 c121 -62 212 -195 232 -341 29 -202 -48 -385
-201 -483 -292 -187 -648 103 -592 481 21 140 115 279 226 336 78 40 94 43
191 39 74 -3 100 -9 144 -32z"/>
<path d="M987 473 c-4 -3 -7 -17 -7 -30 0 -23 0 -23 140 -23 l140 0 0 30 0 30
-133 0 c-74 0 -137 -3 -140 -7z"/>
</g>
</svg>
